<?xml version="1.0" encoding="UTF-8"?>
<svg version="1.1" xmlns="http://www.w3.org/2000/svg" width="392" height="326">
<path d="M0 0 C11.24763327 10.70813923 18.85112498 26.22165186 19.4609375 41.83984375 C19.98069968 77.82909095 5.07154601 109.37492021 -19.89453125 135.14453125 C-20.39033691 135.64936035 -20.88614258 136.15418945 -21.39697266 136.67431641 C-22.85207857 138.16403336 -24.27700793 139.67814031 -25.69921875 141.19921875 C-43.61946368 160.08288461 -66.61859803 174.53113986 -91.875 181.1875 C-93.03 181.55875 -94.185 181.93 -95.375 182.3125 C-104.71412582 184.64728146 -114.34687913 184.40547027 -123.91259766 184.22021484 C-125.57041349 184.1925777 -127.22870743 184.19627891 -128.88671875 184.20703125 C-142.50428438 183.77957403 -156.67258246 174.74494908 -165.875 165.1875 C-181.09636277 148.64838674 -187.39985078 129.11109973 -186.78369141 106.88427734 C-185.65649405 81.1418362 -171.12014022 57.22909218 -155.15332031 37.76269531 C-153.97140405 36.30629277 -152.82387711 34.82216243 -151.6796875 33.3359375 C-148.10765772 28.69930277 -144.48119838 24.68071349 -139.97265625 20.9453125 C-137.70677333 19.04652793 -135.58690952 17.02939173 -133.4375 15 C-96.15062365 -18.60989625 -41.91862781 -36.02828857 0 0 Z M-114.875 16.1875 C-116.01775391 17.0228125 -116.01775391 17.0228125 -117.18359375 17.875 C-142.48518841 36.98986409 -167.663671 68.01677611 -172.875 100.1875 C-174.50306437 113.10256525 -174.35042973 125.06922126 -166.875 136.1875 C-160.55812431 143.38708321 -152.43319556 147.51674943 -142.875 148.1875 C-142.17246094 148.2390625 -141.46992188 148.290625 -140.74609375 148.34375 C-112.11023821 149.47597493 -84.69960963 132.07824151 -64.4375 113.5 C-62.57494691 111.73798959 -60.7201067 109.96777132 -58.875 108.1875 C-58.08738281 107.45144531 -57.29976563 106.71539062 -56.48828125 105.95703125 C-40.84163766 90.96574446 -28.96142352 71.60055659 -21.875 51.1875 C-21.65199219 50.55247559 -21.42898437 49.91745117 -21.19921875 49.26318359 C-17.13263874 37.27862302 -15.02049005 22.98176091 -20.74609375 11.19140625 C-21.11863281 10.53011719 -21.49117187 9.86882812 -21.875 9.1875 C-22.473125 8.115 -23.07125 7.0425 -23.6875 5.9375 C-29.67169739 -1.58549101 -36.50328631 -5.15031382 -45.75 -7.5625 C-71.52248378 -9.6242987 -94.71384317 0.61809986 -114.875 16.1875 Z M-5.875 15.1875 C-5.84019531 16.45722656 -5.80539063 17.72695312 -5.76953125 19.03515625 C-5.00979432 58.54918963 -24.78812409 89.80879958 -51.26953125 117.54296875 C-68.35701111 135.05980523 -89.01208381 146.86784926 -111.875 155.1875 C-112.66261719 155.538125 -113.45023438 155.88875 -114.26171875 156.25 C-117.62103892 157.45513728 -120.97469285 157.90507348 -124.5 158.3125 C-125.56287231 158.43878784 -125.56287231 158.43878784 -126.6472168 158.56762695 C-136.16913465 159.63305411 -145.3623335 159.21788554 -154.875 158.1875 C-145.75098922 167.76564707 -133.46643927 172.13116108 -120.38818359 172.66015625 C-91.1831524 173.013011 -65.88117346 159.28488461 -43.875 141.1875 C-43.02550781 140.49140625 -42.17601562 139.7953125 -41.30078125 139.078125 C-38.49095162 136.73503516 -38.49095162 136.73503516 -35.875 134.1875 C-35.875 133.5275 -35.875 132.8675 -35.875 132.1875 C-35.33230469 131.98769531 -34.78960937 131.78789062 -34.23046875 131.58203125 C-30.892821 129.60601094 -28.65006101 126.81282663 -26.1875 123.875 C-25.65785645 123.2461792 -25.12821289 122.6173584 -24.58251953 121.96948242 C-6.65236862 100.39972195 6.2864968 75.23901904 6.3125 46.6875 C6.32474609 45.97980469 6.33699219 45.27210938 6.34960938 44.54296875 C6.37165218 36.50469399 4.31224761 29.86866569 0.6875 22.75 C0.23793945 21.81510742 0.23793945 21.81510742 -0.22070312 20.86132812 C-2.07631043 16.99324086 -2.07631043 16.99324086 -5.875 15.1875 Z " fill="#646464" transform="translate(236.875,102.8125)"/>
<path d="M0 0 C5.76139544 0.08334981 10.28721798 2.67619954 15.29296875 5.30859375 C16.26395508 5.80786377 17.23494141 6.30713379 18.23535156 6.8215332 C29.64838523 12.79919997 39.6777911 20.18257131 49.60546875 28.37109375 C50.1675 28.809375 50.72953125 29.24765625 51.30859375 29.69921875 C66.6938172 41.84544779 76.44698064 60.34336297 79.29296875 79.49609375 C80.77021293 97.81392153 76.7190294 116.11436468 64.60546875 130.37109375 C47.57215911 147.29925951 27.20322013 153.56259544 3.48046875 153.74609375 C-14.64755276 153.64078715 -32.58080609 151.34896052 -49.39453125 144.49609375 C-50.67070312 143.98755859 -50.67070312 143.98755859 -51.97265625 143.46875 C-65.92481724 137.84080776 -65.92481724 137.84080776 -68.39453125 135.37109375 C-68.78855581 131.82487272 -68.77988638 129.97224775 -66.83203125 126.93359375 C-63.35624313 124.70552444 -61.37729754 125.55294468 -57.39453125 126.37109375 C-55.23992516 127.21582765 -53.11422635 128.13714496 -51.01953125 129.12109375 C-25.02808655 140.71997312 6.44258206 145.24750617 33.65356445 135.31958008 C44.14933649 131.22760741 51.7984658 125.42295937 58.60546875 116.37109375 C58.60546875 115.71109375 58.60546875 115.05109375 58.60546875 114.37109375 C56.6301013 114.71896083 56.6301013 114.71896083 54.60546875 115.37109375 C54.27546875 116.03109375 53.94546875 116.69109375 53.60546875 117.37109375 C51.60546875 117.70442708 49.60546875 118.03776042 47.60546875 118.37109375 C47.27546875 119.03109375 46.94546875 119.69109375 46.60546875 120.37109375 C30.31927421 126.89862663 10.56507061 126.00039575 -6.39453125 123.37109375 C-7.60625 123.18933594 -8.81796875 123.00757813 -10.06640625 122.8203125 C-12.8518425 122.37532207 -15.62357027 121.89784192 -18.39453125 121.37109375 C-19.14863281 121.24605469 -19.90273437 121.12101562 -20.6796875 120.9921875 C-24.54107579 120.10879075 -28.22355893 118.81001963 -31.95703125 117.49609375 C-32.71177734 117.23957031 -33.46652344 116.98304688 -34.24414062 116.71875 C-38.08534735 115.3717894 -41.29766911 114.11473289 -44.39453125 111.37109375 C-44.08203125 107.99609375 -44.08203125 107.99609375 -43.39453125 104.37109375 C-39.58092197 101.82868756 -37.95072115 102.02027163 -33.39453125 102.37109375 C-29.90407068 103.16238927 -26.5007286 104.19078875 -23.08203125 105.24609375 C-11.84199884 108.6630636 -1.15024377 110.78330812 10.60546875 111.37109375 C12.075 111.45230469 12.075 111.45230469 13.57421875 111.53515625 C28.38226121 111.97302847 45.40555898 108.43415261 57.08203125 98.8515625 C59.11244953 96.87841243 60.48163327 94.96996329 61.60546875 92.37109375 C61.60546875 91.38109375 61.60546875 90.39109375 61.60546875 89.37109375 C60.53296875 89.59796875 59.46046875 89.82484375 58.35546875 90.05859375 C54.60546875 90.37109375 54.60546875 90.37109375 52.62109375 89.37890625 C49.73963399 86.50861494 48.30488908 83.21964965 46.60546875 79.55859375 C36.4610496 58.061143 19.05404476 46.28377357 -1.05859375 34.75390625 C-3.39453125 33.37109375 -3.39453125 33.37109375 -4.39453125 32.37109375 C-4.79291474 28.78564231 -4.79584132 26.97305885 -2.76953125 23.93359375 C-0.39453125 22.37109375 -0.39453125 22.37109375 2.2109375 22.4921875 C6.66028334 23.64420455 10.31039168 25.61367092 14.29296875 27.87109375 C15.08952881 28.31888184 15.88608887 28.76666992 16.70678711 29.22802734 C23.29078257 33.01798273 28.95135985 37.28332417 34.60546875 42.37109375 C35.38019531 43.015625 36.15492188 43.66015625 36.953125 44.32421875 C49.12108874 54.59289484 56.6483571 67.26480295 63.60546875 81.37109375 C63.91243517 75.74337607 63.27497122 71.617709 61.26171875 66.3515625 C60.60546875 64.37109375 60.60546875 64.37109375 60.60546875 61.37109375 C59.94546875 61.04109375 59.28546875 60.71109375 58.60546875 60.37109375 C57.73177208 58.93657826 56.90650157 57.47241586 56.10546875 55.99609375 C51.83244253 48.70681373 46.37614486 41.87005598 39.29296875 37.17578125 C38.40609375 36.58023438 37.51921875 35.9846875 36.60546875 35.37109375 C36.60546875 34.71109375 36.60546875 34.05109375 36.60546875 33.37109375 C36.08210938 33.12617188 35.55875 32.88125 35.01953125 32.62890625 C31.28189231 30.68146331 27.76015681 28.37897888 24.20703125 26.1171875 C21.14279663 24.03700628 21.14279663 24.03700628 17.60546875 23.37109375 C16.60398189 22.37258282 15.60417524 21.37238559 14.60546875 20.37109375 C12.86219279 19.39873775 12.86219279 19.39873775 10.953125 18.65234375 C10.25896484 18.35972656 9.56480469 18.06710938 8.84960938 17.765625 C8.12966797 17.47042969 7.40972656 17.17523438 6.66796875 16.87109375 C-4.51198983 12.26225394 -4.51198983 12.26225394 -6.26953125 8.49609375 C-6.43452482 5.69120303 -5.61233102 3.87434884 -4.39453125 1.37109375 C-3.39453125 0.37109375 -3.39453125 0.37109375 0 0 Z " fill="#5F5F5F" transform="translate(265.39453125,134.62890625)"/>
<path d="M0 0 C2.42791688 1.09943406 4.40818157 1.69885457 7.0703125 1.9375 C9.39104447 1.01290525 9.39104447 1.01290525 11.6328125 -0.4375 C19.18408975 -4.47159008 27.7034322 -5.15918996 35.98046875 -2.9140625 C44.64569866 0.61681623 51.48767905 8.45231551 55.0703125 16.9375 C58.18713979 27.4649656 55.17126789 37.39813525 50.1328125 46.75 C41.93126364 60.21161395 29.44702307 71.17610802 16.8203125 80.375 C16.24168457 80.80063232 15.66305664 81.22626465 15.06689453 81.66479492 C11.54165333 84.16669334 8.32884767 86.07648469 4.0703125 86.9375 C-7.13048393 83.35094361 -18.57884395 71.53640488 -26.8046875 63.375 C-27.32272949 62.86243652 -27.84077148 62.34987305 -28.37451172 61.82177734 C-31.9296875 58.19581536 -31.9296875 58.19581536 -31.9296875 55.9375 C-32.5896875 55.9375 -33.2496875 55.9375 -33.9296875 55.9375 C-35.34761921 53.96263121 -36.62066736 52.01731187 -37.8671875 49.9375 C-38.2269165 49.34461182 -38.58664551 48.75172363 -38.95727539 48.14086914 C-44.21215949 39.30250786 -47.7082 29.88849705 -45.3984375 19.5625 C-42.37897677 9.84771331 -36.46947589 3.32920718 -27.8671875 -1.9375 C-18.58469593 -5.49249677 -8.72781157 -4.51324096 0 0 Z M-27.59375 13.3671875 C-31.7644723 18.26961547 -32.40593932 22.61123573 -32.33203125 28.8359375 C-31.06403461 38.61059121 -24.29561872 46.79553144 -17.9296875 53.9375 C-17.32511719 54.62457031 -16.72054688 55.31164062 -16.09765625 56.01953125 C-12.18819179 60.19237016 -7.86548123 63.66200142 -3.2421875 67 C-2.6953833 67.40677979 -2.1485791 67.81355957 -1.58520508 68.23266602 C0.9582114 69.99986259 2.56635568 70.95619276 5.703125 70.83984375 C20.30047003 65.27550926 34.78407049 49.47111894 41.23046875 35.40625 C42.32548605 32.18740845 42.20261476 29.31120761 42.0703125 25.9375 C41.4721875 26.741875 40.8740625 27.54625 40.2578125 28.375 C38.0703125 30.9375 38.0703125 30.9375 35.0703125 31.9375 C32.5703125 31.375 32.5703125 31.375 30.0703125 29.9375 C29.5959375 28.968125 29.1215625 27.99875 28.6328125 27 C26.70446282 23.22043462 24.91180538 22.52420358 21.0703125 20.9375 C20.0703125 19.9375 20.0703125 19.9375 19.9453125 17 C20.0703125 13.9375 20.0703125 13.9375 21.0703125 11.9375 C22.0603125 11.2775 23.0503125 10.6175 24.0703125 9.9375 C18.75599424 10.35430928 15.90672162 11.20477762 12.0703125 14.9375 C11.11125 16.29875 11.11125 16.29875 10.1328125 17.6875 C8.0703125 19.9375 8.0703125 19.9375 5.1953125 20.6875 C1.69754806 19.84803654 1.39355651 19.40497237 -0.6796875 16.6875 C-4.16360063 12.1316136 -8.49323393 10.44398714 -13.9296875 8.9375 C-18.7973246 8.9375 -23.83421974 10.13716855 -27.59375 13.3671875 Z " fill="#616161" transform="translate(285.9296875,44.0625)"/>
<path d="M0 0 C2.88637545 0.20137503 4.43510255 0.35221319 6.6875 2.1875 C7.76780918 5.50044816 8.1418193 7.27886141 6.5625 10.4375 C2.91581652 13.84107125 -0.96781948 14.3894757 -5.8125 14.5625 C-16.25656042 15.32043304 -26.27951717 18.23253651 -34.3125 25.1875 C-35.35081683 26.4912162 -36.36228278 27.81824289 -37.3125 29.1875 C-36.18972656 28.77757812 -35.06695312 28.36765625 -33.91015625 27.9453125 C-10.79996396 19.58339467 -10.79996396 19.58339467 0.6875 21.1875 C2.515625 22.51953125 2.515625 22.51953125 3.6875 24.1875 C4.31932168 29.24207341 4.31932168 29.24207341 2.6171875 31.7890625 C-0.19531238 33.82727092 -3.20550944 34.07667219 -6.5625 34.5625 C-13.73780256 35.72250999 -20.22332045 37.71372048 -27.0078125 40.296875 C-30.60310663 41.26581952 -32.74412482 41.14841617 -36.3125 40.1875 C-39.02206113 38.22540401 -39.75090585 36.44474605 -40.3125 33.1875 C-43.93648543 40.28447146 -44.26243918 46.22523307 -42.25 53.9375 C-39.89559151 61.1246417 -36.24995364 68.39046891 -31.6171875 74.37890625 C-29.69366039 77.04535252 -29.90451645 78.99162883 -30.3125 82.1875 C-31.4375 84.0625 -31.4375 84.0625 -33.3125 85.1875 C-36.85525664 85.72661514 -38.69355922 85.54339095 -41.8125 83.75 C-48.95984831 76.42396798 -52.55909677 67.54438819 -56.3125 58.1875 C-59.36364858 64.28979715 -57.070097 72.08441182 -55.5 78.375 C-55.3347583 79.03967285 -55.1695166 79.7043457 -54.99926758 80.38916016 C-54.12136785 83.71650342 -53.08536755 86.85026608 -51.703125 90.00390625 C-50.34097445 93.12231271 -49.66485346 94.85674637 -50.3125 98.1875 C-51.875 100.0625 -51.875 100.0625 -54.3125 101.1875 C-57.75 101.375 -57.75 101.375 -61.3125 100.1875 C-69.537552 92.07542948 -71.21456299 77.09718058 -71.625 66.1875 C-71.51189662 55.26674019 -68.67763668 45.21458954 -62.58203125 36.140625 C-61.1480395 34.11392216 -61.1480395 34.11392216 -60.3125 31.1875 C-59.6525 31.1875 -58.9925 31.1875 -58.3125 31.1875 C-57.9721875 30.383125 -57.9721875 30.383125 -57.625 29.5625 C-50.27341194 16.25962637 -34.7578411 7.48734188 -20.625 3.3125 C-13.70239325 1.37136879 -7.18870753 0.40690797 0 0 Z " fill="#5F5F5F" transform="translate(206.3125,123.8125)"/>
<path d="M0 0 C1 1 1 1 1.375 4.375 C1 8 1 8 -0.875 9.66796875 C-5.32347637 11.5641318 -9.58454116 11.65814806 -14.375 11.9375 C-43.87989404 14.23047657 -67.5046108 27.96525845 -88 49 C-88.56847656 49.52335937 -89.13695312 50.04671875 -89.72265625 50.5859375 C-107.41384606 67.25715812 -119.35843533 91.53919868 -121.41796875 115.73046875 C-121.49442627 116.58479492 -121.57088379 117.43912109 -121.6496582 118.31933594 C-121.79785473 120.0411773 -121.9284177 121.76464337 -122.03979492 123.48925781 C-122.54342731 129.49396526 -122.54342731 129.49396526 -124.875 132.078125 C-127.90623125 133.39314444 -129.87082789 132.88433125 -133 132 C-136.50268862 128.49731138 -135.93911929 123.76529929 -136 119 C-135.14592351 101.59581914 -130.03049772 84.8686161 -121 70 C-120.18411212 68.56442016 -119.37094909 67.12728213 -118.5625 65.6875 C-118.046875 64.800625 -117.53125 63.91375 -117 63 C-116.34 63 -115.68 63 -115 63 C-114.79375 62.33355469 -114.5875 61.66710937 -114.375 60.98046875 C-112.49732016 56.91038433 -109.84635974 53.75169897 -107 50.3125 C-106.41694092 49.60351562 -105.83388184 48.89453125 -105.2331543 48.1640625 C-86.47389778 25.61290481 -32.58082991 -17.86690672 0 0 Z " fill="#686868" transform="translate(206,104)"/>
<path d="M0 0 C4.44934584 1.15201705 8.09945418 3.12148342 12.08203125 5.37890625 C12.87859131 5.82669434 13.67515137 6.27448242 14.49584961 6.73583984 C21.07984507 10.52579523 26.74042235 14.79113667 32.39453125 19.87890625 C33.55662109 20.84570312 33.55662109 20.84570312 34.7421875 21.83203125 C46.91015124 32.10070734 54.4374196 44.77261545 61.39453125 58.87890625 C61.48491224 53.72719002 61.24134258 48.95977421 60.39453125 43.87890625 C61.05453125 43.87890625 61.71453125 43.87890625 62.39453125 43.87890625 C65.22652342 53.25988031 65.71315227 61.90946258 61.39453125 70.87890625 C60.40453125 71.37390625 60.40453125 71.37390625 59.39453125 71.87890625 C59.39453125 70.22890625 59.39453125 68.57890625 59.39453125 66.87890625 C58.32203125 67.10578125 57.24953125 67.33265625 56.14453125 67.56640625 C52.39453125 67.87890625 52.39453125 67.87890625 50.41015625 66.88671875 C47.52869649 64.01642744 46.09395158 60.72746215 44.39453125 57.06640625 C34.2501121 35.5689555 16.84310726 23.79158607 -3.26953125 12.26171875 C-5.60546875 10.87890625 -5.60546875 10.87890625 -6.60546875 9.87890625 C-7.00385224 6.29345481 -7.00677882 4.48087135 -4.98046875 1.44140625 C-2.60546875 -0.12109375 -2.60546875 -0.12109375 0 0 Z " fill="#6A6A6A" transform="translate(267.60546875,157.12109375)"/>
<path d="M0 0 C3.07976273 1.12674246 5.12049996 2.77458568 7.5625 4.9375 C8.078125 4.669375 8.59375 4.40125 9.125 4.125 C9.929375 3.733125 10.73375 3.34125 11.5625 2.9375 C12.696875 2.339375 13.83125 1.74125 15 1.125 C18.5625 -0.0625 18.5625 -0.0625 21.4375 1.1875 C24.54037611 3.74280973 24.54037611 3.74280973 24.875 6.6875 C24.49456749 10.64399807 23.021092 11.92374206 20.5625 14.9375 C20.6461189 17.69692373 21.34921666 18.69960704 23.1875 20.75 C24.5625 22.9375 24.5625 22.9375 24.625 26.5 C23.5625 29.9375 23.5625 29.9375 20.9375 32.125 C17.33930369 32.99123245 16.91063428 32.9817766 13.875 31.3125 C11.52396746 29.74167738 9.40322341 28.10305695 7.5625 25.9375 C7.2325 26.9275 6.9025 27.9175 6.5625 28.9375 C4.05600295 31.54040079 2.64014984 31.92796406 -1 32.375 C-4.4375 31.9375 -4.4375 31.9375 -6.4375 30.375 C-7.87202262 26.87835111 -7.35843323 24.55545196 -6.4375 20.9375 C-5.45654252 19.91881338 -4.46047922 18.91398017 -3.4375 17.9375 C-3.61894005 15.21589918 -4.51723753 13.82096053 -6.0625 11.5625 C-7.4375 8.9375 -7.4375 8.9375 -7.375 5.8125 C-6.4375 2.9375 -6.4375 2.9375 -4.6875 1 C-2.4375 -0.0625 -2.4375 -0.0625 0 0 Z M7.5625 13.9375 C7.2325 14.5975 6.9025 15.2575 6.5625 15.9375 C6.8925 16.5975 7.2225 17.2575 7.5625 17.9375 C8.2225 17.9375 8.8825 17.9375 9.5625 17.9375 C9.5625 16.6175 9.5625 15.2975 9.5625 13.9375 C8.9025 13.9375 8.2425 13.9375 7.5625 13.9375 Z " fill="#E6E6E6" transform="translate(191.4375,22.0625)"/>
<path d="M0 0 C0.66 0.66 1.32 1.32 2 2 C4.30442333 1.69274356 5.88077521 1.07153488 7.875 -0.125 C10.91309959 -1.37598218 12.87664816 -0.86390583 16 0 C17.875 1.1875 17.875 1.1875 19 3 C19.375 6 19.375 6 19 9 C18 10 17 11 16 12 C16.24453124 15.34192692 16.60543557 16.60543557 19 19 C19.4375 21.875 19.4375 21.875 19 25 C16.875 27.4375 16.875 27.4375 14 29 C10.07171964 28.84286879 8.29105892 28.19403928 5 26 C5 25.34 5 24.68 5 24 C4.278125 24.639375 3.55625 25.27875 2.8125 25.9375 C-0.05483613 28.04021316 -1.47605824 28.91190146 -5 29 C-7.75 27.9375 -7.75 27.9375 -10 26 C-11.0625 23.125 -11.0625 23.125 -11 20 C-9.0625 17.125 -9.0625 17.125 -7 15 C-8.20381448 12.50638429 -9.45428722 10.31856917 -11 8 C-10.80852432 4.93638914 -10.42177804 2.72639551 -8.875 0.0625 C-5.80365094 -1.67793113 -3.31631617 -0.78385655 0 0 Z M3 11 C2.67 12.65 2.34 14.3 2 16 C3.32 15.67 4.64 15.34 6 15 C5.67 13.68 5.34 12.36 5 11 C4.34 11 3.68 11 3 11 Z " fill="#E3E3E3" transform="translate(105,60)"/>
<path d="M0 0 C0.495 3.465 0.495 3.465 1 7 C-2.43966188 9.29310792 -5.45537783 9.7373217 -9.4375 10.375 C-15.6661038 11.43943524 -21.43032861 12.96546954 -27.3515625 15.23046875 C-30.387477 16.1125855 -32.85399 16.26877676 -36 16 C-38 14 -38 14 -38.125 10.875 C-38.08375 9.92625 -38.0425 8.9775 -38 8 C-25.04087486 1.98393899 -14.42402226 -0.41277011 0 0 Z " fill="#555555" transform="translate(207,147)"/>
<path d="M0 0 C1.82303709 2.59478945 1.55638523 4.5918869 1.171875 7.66796875 C-0.62622571 10.3585574 -1.90128516 10.68529616 -5.09375 11.44140625 C-6.42053688 11.650598 -7.74879668 11.85058672 -9.078125 12.04296875 C-16.25342756 13.20297874 -22.73894545 15.19418923 -29.5234375 17.77734375 C-33.11873163 18.74628827 -35.25974982 18.62888492 -38.828125 17.66796875 C-41.53768613 15.70587276 -42.26653085 13.9252148 -42.828125 10.66796875 C-46.45211043 17.76494021 -46.77806418 23.70570182 -44.765625 31.41796875 C-42.41210926 38.60238523 -38.7692105 45.87301971 -34.1328125 51.85546875 C-32.21896745 54.51422355 -32.41336082 56.48811002 -32.828125 59.66796875 C-33.818125 60.32796875 -34.808125 60.98796875 -35.828125 61.66796875 C-35.704375 60.69859375 -35.580625 59.72921875 -35.453125 58.73046875 C-35.42544992 54.16408118 -37.70314081 51.46279986 -40.30078125 47.875 C-42.33861654 44.93030195 -43.52288446 41.99633213 -44.828125 38.66796875 C-45.199375 38.00796875 -45.570625 37.34796875 -45.953125 36.66796875 C-49.00302725 29.6967636 -48.80240353 20.07719985 -47.828125 12.66796875 C-45.31106593 7.53012564 -42.09536566 3.96364665 -36.828125 1.66796875 C-38.313125 4.14296875 -38.313125 4.14296875 -39.828125 6.66796875 C-38.70535156 6.25804687 -37.58257812 5.848125 -36.42578125 5.42578125 C-7.11084033 -5.18118922 -7.11084033 -5.18118922 0 0 Z M-39.828125 8.66796875 C-39.99493609 11.58449049 -39.99493609 11.58449049 -39.828125 14.66796875 C-37.96792694 16.95773243 -37.96792694 16.95773243 -35.0390625 16.90625 C-31.80574027 16.6663076 -29.4685991 16.0089524 -26.453125 14.85546875 C-20.75116394 12.83080754 -15.12705853 11.66132054 -9.17236328 10.70776367 C-5.75740406 10.1386038 -3.7613415 9.62344642 -0.828125 7.66796875 C-1.323125 4.20296875 -1.323125 4.20296875 -1.828125 0.66796875 C-15.76373357 0.05215626 -27.18677988 2.90533755 -39.828125 8.66796875 Z " fill="#CBCBCB" transform="translate(208.828125,146.33203125)"/>
<path d="M0 0 C4.27795749 1.30198706 4.27795749 1.30198706 5.875 3.875 C6.25 6.875 6.25 6.875 5.875 9.875 C4.875 10.875 3.875 11.875 2.875 12.875 C3.11953124 16.21692692 3.48043557 17.48043557 5.875 19.875 C6.3125 22.75 6.3125 22.75 5.875 25.875 C3.75 28.3125 3.75 28.3125 0.875 29.875 C-2.375 29.75 -2.375 29.75 -5.125 28.875 C-5.455 28.215 -5.785 27.555 -6.125 26.875 C-5.031875 26.895625 -3.93875 26.91625 -2.8125 26.9375 C0.81884191 27.06044452 0.81884191 27.06044452 3.875 25.875 C2.7655928 22.38829166 1.61162334 19.10015763 -0.125 15.875 C-3.61170834 16.9844072 -6.89984237 18.13837666 -10.125 19.875 C-10.455 18.885 -10.785 17.895 -11.125 16.875 C-10.135 16.545 -9.145 16.215 -8.125 15.875 C-8.125 14.555 -8.125 13.235 -8.125 11.875 C-9.775 12.535 -11.425 13.195 -13.125 13.875 C-12.465 12.885 -11.805 11.895 -11.125 10.875 C-10.75301664 7.24816225 -11.27225986 5.00149899 -13.125 1.875 C-12.0421875 2.2153125 -12.0421875 2.2153125 -10.9375 2.5625 C-8.05257854 3.1748595 -8.05257854 3.1748595 -5.6875 1.375 C-3.125 -0.125 -3.125 -0.125 0 0 Z " fill="#E2E2E2" transform="translate(118.125,59.125)"/>
<path d="M0 0 C0.80824219 0.11085937 1.61648438 0.22171875 2.44921875 0.3359375 C3.37154297 0.47902344 3.37154297 0.47902344 4.3125 0.625 C4.3125 1.285 4.3125 1.945 4.3125 2.625 C4.9725 2.625 5.6325 2.625 6.3125 2.625 C9.48973763 6.25612872 11.64708733 8.97428627 11.9375 13.875 C11.3125 17.625 11.3125 17.625 9.125 19.75 C6.3125 20.625 6.3125 20.625 3.625 19.9375 C1.3125 18.625 1.3125 18.625 -0.6875 16.625 C-0.790625 15.965 -0.89375 15.305 -1 14.625 C-1.226875 13.965 -1.45375 13.305 -1.6875 12.625 C-4.17784386 11.32839566 -4.17784386 11.32839566 -6.6875 10.625 C-7.0175 7.655 -7.3475 4.685 -7.6875 1.625 C-4.33422361 -0.61051759 -3.78006343 -0.54783528 0 0 Z " fill="#595959" transform="translate(314.6875,56.375)"/>
<path d="M0 0 C6.24158999 -0.39276763 11.37436509 1.04197917 17.3125 2.875 C28.55253241 6.29196985 39.24428748 8.41221437 51 9 C51.9796875 9.05414063 52.959375 9.10828125 53.96875 9.1640625 C65.96846918 9.51889291 77.56144717 6.35308929 89 3 C87.54325818 5.91348365 85.66154497 5.97984841 82.625 7 C79.3328428 8.11186312 76.91120337 9.05919775 74 11 C58.30582377 13.49113908 42.43412413 12.41934864 27 9 C25.31390625 8.64035156 25.31390625 8.64035156 23.59375 8.2734375 C18.05573345 7.00081248 13.1041259 5.29673221 7.98046875 2.8515625 C5.3728564 1.73034062 2.81293485 1.28850614 0 1 C0 0.67 0 0.34 0 0 Z " fill="#BFBFBF" transform="translate(225,237)"/>
<path d="M0 0 C3.28770402 1.98945161 6.28637373 4.06780354 8.82421875 6.98046875 C8.82421875 7.64046875 8.82421875 8.30046875 8.82421875 8.98046875 C9.48421875 8.98046875 10.14421875 8.98046875 10.82421875 8.98046875 C13.16818955 16.01238115 12.04257202 23.36660514 8.82421875 29.98046875 C8.16421875 30.31046875 7.50421875 30.64046875 6.82421875 30.98046875 C7.35015625 29.37171875 7.35015625 29.37171875 7.88671875 27.73046875 C8.78794606 24.12555951 8.95386901 23.26672406 7.82421875 19.98046875 C7.72109375 18.84609375 7.61796875 17.71171875 7.51171875 16.54296875 C6.74777563 12.5843544 5.45338355 10.94888062 2.82421875 7.98046875 C2.82421875 7.32046875 2.82421875 6.66046875 2.82421875 5.98046875 C2.16421875 5.98046875 1.50421875 5.98046875 0.82421875 5.98046875 C0.82421875 5.32046875 0.82421875 4.66046875 0.82421875 3.98046875 C-0.63401337 3.95346445 -2.092388 3.93407088 -3.55078125 3.91796875 C-4.76894531 3.90056641 -4.76894531 3.90056641 -6.01171875 3.8828125 C-8.22515267 3.83580541 -8.22515267 3.83580541 -10.17578125 4.98046875 C-10.17578125 7.62046875 -10.17578125 10.26046875 -10.17578125 12.98046875 C-11.16578125 12.32046875 -12.15578125 11.66046875 -13.17578125 10.98046875 C-13.46649606 7.56456979 -13.26297369 5.24204608 -12.17578125 1.98046875 C-14.15578125 2.64046875 -16.13578125 3.30046875 -18.17578125 3.98046875 C-18.17578125 3.32046875 -18.17578125 2.66046875 -18.17578125 1.98046875 C-12.0984201 -0.6241146 -6.34952592 -2.97527157 0 0 Z " fill="#DADADA" transform="translate(318.17578125,53.01953125)"/>
<path d="M0 0 C4.33311346 3.8408837 6.49080659 7.49339955 8.6875 12.8125 C8.98205078 13.48603516 9.27660156 14.15957031 9.58007812 14.85351562 C13.31535991 23.6251324 14.38872114 31.45185711 14.375 40.9375 C14.37411377 42.03763428 14.37322754 43.13776855 14.37231445 44.27124023 C14.19423099 56.66024447 11.44699407 67.46839646 7 79 C6.67 79 6.34 79 6 79 C6.56710998 73.10205624 7.77915639 67.56251838 9.28125 61.83203125 C10.98698859 55.11105039 11.21746943 48.85431267 11.25 41.9375 C11.270625 40.86822266 11.29125 39.79894531 11.3125 38.69726562 C11.3600244 28.86565596 9.96077298 19.48265447 4.9375 10.875 C4.43089844 9.98554687 3.92429688 9.09609375 3.40234375 8.1796875 C2.05039142 5.90900764 2.05039142 5.90900764 0 4 C0 2.68 0 1.36 0 0 Z " fill="#BFBFBF" transform="translate(242,110)"/>
<path d="M0 0 C5.76156242 0.08335223 10.28694491 2.67646679 15.29296875 5.30859375 C16.26250488 5.80641357 17.23204102 6.3042334 18.23095703 6.81713867 C25.8207733 10.78814169 32.78815503 15.19033693 39.60546875 20.37109375 C40.44980469 20.995 41.29414063 21.61890625 42.1640625 22.26171875 C43.99030388 23.61636574 45.80426387 24.98345857 47.60546875 26.37109375 C46.61546875 26.70109375 45.62546875 27.03109375 44.60546875 27.37109375 C42.3828125 25.7734375 42.3828125 25.7734375 39.54296875 23.30859375 C32.94591442 17.90739209 25.70202534 13.81681106 18.23046875 9.74609375 C16.53651978 8.80431274 16.53651978 8.80431274 14.80834961 7.84350586 C13.72303955 7.26221924 12.63772949 6.68093262 11.51953125 6.08203125 C10.54967285 5.55915527 9.57981445 5.0362793 8.58056641 4.49755859 C5.07204553 3.16912307 2.32789114 3.10069298 -1.39453125 3.37109375 C-1.72453125 3.70109375 -2.05453125 4.03109375 -2.39453125 4.37109375 C-2.39453125 6.02109375 -2.39453125 7.67109375 -2.39453125 9.37109375 C4.04046875 12.83609375 4.04046875 12.83609375 10.60546875 16.37109375 C9.94546875 16.70109375 9.28546875 17.03109375 8.60546875 17.37109375 C6.109375 16.4453125 6.109375 16.4453125 3.16796875 15.05859375 C2.19988281 14.60871094 1.23179687 14.15882813 0.234375 13.6953125 C-5.11147367 11.00252989 -5.11147367 11.00252989 -6.20703125 8.55859375 C-6.45224475 5.69776956 -5.63788887 3.92688441 -4.39453125 1.37109375 C-3.39453125 0.37109375 -3.39453125 0.37109375 0 0 Z " fill="#C5C5C5" transform="translate(265.39453125,134.62890625)"/>
<path d="M0 0 C0 0.33 0 0.66 0 1 C-9.9 1.495 -9.9 1.495 -20 2 C-20 2.66 -20 3.32 -20 4 C-20.886875 4.391875 -21.77375 4.78375 -22.6875 5.1875 C-29.07088733 8.68029684 -32.67950873 13.45552342 -35.1875 20.1875 C-37.33048178 30.24302988 -36.0392994 40.64389545 -30.43359375 49.46484375 C-29.41759209 50.77952541 -28.36698951 52.06891572 -27.26953125 53.31640625 C-25.85220824 55.19599461 -25.41727427 56.70247782 -25 59 C-25.66 59 -26.32 59 -27 59 C-28.41793171 57.02513121 -29.69097986 55.07981187 -30.9375 53 C-31.297229 52.40711182 -31.65695801 51.81422363 -32.02758789 51.20336914 C-37.28247199 42.36500786 -40.7785125 32.95099705 -38.46875 22.625 C-35.44928927 12.91021331 -29.53978839 6.39170718 -20.9375 1.125 C-13.87905402 -1.57823463 -7.34231284 -0.8630205 0 0 Z " fill="#D1D1D1" transform="translate(279,41)"/>
<path d="M0 0 C1.82303709 2.59478945 1.55638523 4.5918869 1.171875 7.66796875 C-0.62622571 10.3585574 -1.90128516 10.68529616 -5.09375 11.44140625 C-6.42053688 11.650598 -7.74879668 11.85058672 -9.078125 12.04296875 C-16.25342756 13.20297874 -22.73894545 15.19418923 -29.5234375 17.77734375 C-33.75311811 18.91725767 -36.90903504 18.62751373 -40.828125 16.66796875 C-40.828125 14.35796875 -40.828125 12.04796875 -40.828125 9.66796875 C-40.498125 9.66796875 -40.168125 9.66796875 -39.828125 9.66796875 C-39.168125 11.64796875 -38.508125 13.62796875 -37.828125 15.66796875 C-33.54972307 15.84989493 -30.44084243 15.38085636 -26.453125 13.85546875 C-20.72283434 11.8253909 -15.0575265 10.63648984 -9.08447266 9.61987305 C-5.3443622 9.01393342 -5.3443622 9.01393342 -1.828125 7.66796875 C-1.828125 5.35796875 -1.828125 3.04796875 -1.828125 0.66796875 C-3.93261438 0.80906861 -6.0367127 0.9560105 -8.140625 1.10546875 C-9.31238281 1.18667969 -10.48414063 1.26789063 -11.69140625 1.3515625 C-14.85403458 1.55470585 -14.85403458 1.55470585 -17.828125 2.66796875 C-19.22252164 2.73462251 -20.61982375 2.75335074 -22.015625 2.73046875 C-23.9028125 2.69953125 -23.9028125 2.69953125 -25.828125 2.66796875 C-19.77938794 -1.36452262 -6.2424604 -4.54845939 0 0 Z " fill="#C3C3C3" transform="translate(208.828125,146.33203125)"/>
<path d="M0 0 C2.4375 0.4375 2.4375 0.4375 4.25 1.5 C6.12771039 4.56363274 5.87479494 6.93914045 5.4375 10.4375 C3.875 12.375 3.875 12.375 1.4375 13.4375 C-2.1875 13.8125 -2.1875 13.8125 -5.5625 13.4375 C-7.5625 10.4375 -7.5625 10.4375 -7.4375 7.5 C-6.19883232 3.16466312 -4.58190959 0.78227725 0 0 Z " fill="#656565" transform="translate(193.5625,39.5625)"/>
<path d="M0 0 C4.0445078 0.38889498 5.55172977 1.29678621 8.25 4.3125 C8.75 7.4375 8.75 7.4375 8.25 10.3125 C4.75434664 12.64293558 3.3634271 12.90013244 -0.75 12.3125 C-3.1875 10.1875 -3.1875 10.1875 -4.75 7.3125 C-4.3566872 0.49507809 -4.3566872 0.49507809 0 0 Z " fill="#5C5C5C" transform="translate(190.75,24.6875)"/>
<path d="M0 0 C0.67578125 1.7109375 0.67578125 1.7109375 1 4 C-0.14453125 6.2265625 -0.14453125 6.2265625 -1.8125 8.625 C-9.61035386 21.05452575 -8.0307535 36.70830225 -4.99609375 50.53125 C-3.6001043 55.39257797 -1.54659026 59.64881161 1 64 C1.33 64.66 1.66 65.32 2 66 C-0.78190282 64.98410343 -1.84784045 64.25690394 -3.37890625 61.671875 C-10.43142602 44.26169417 -12.49076947 27.85945054 -6 10 C-4.22642063 6.48744768 -2.26835729 3.21350615 0 0 Z " fill="#C5C5C5" transform="translate(145,158)"/>
<path d="M0 0 C0.99 0.66 1.98 1.32 3 2 C3.54896129 5.60745994 3.45245486 7.33871982 1.375 10.375 C-1.64835963 12.44361448 -3.40588208 12.46879799 -7 12 C-9 10 -9 10 -9.375 7.125 C-9 4 -9 4 -7.3125 1.625 C-4.55803405 -0.31057067 -3.29775432 -0.50734682 0 0 Z " fill="#636363" transform="translate(119,61)"/>
<path d="M0 0 C3.3125 0.8125 3.3125 0.8125 4.3125 1.8125 C4.70838785 5.37549065 4.73917508 7.18889795 2.6875 10.1875 C-0.33585963 12.25611448 -2.09338208 12.28129799 -5.6875 11.8125 C-7.6875 9.8125 -7.6875 9.8125 -8.0625 6.9375 C-7.6875 3.8125 -7.6875 3.8125 -6.125 1.375 C-3.6875 -0.1875 -3.6875 -0.1875 0 0 Z " fill="#636363" transform="translate(103.6875,75.1875)"/>
<path d="M0 0 C3.4027576 -0.38888658 4.82698671 -0.10380798 7.8125 1.6875 C10 4 10 4 10.5 6.5625 C10 9 10 9 8.8125 10.8125 C6.31014509 12.4519739 4.93962197 12.50188668 2 12 C-0.3125 10.375 -0.3125 10.375 -2 8 C-2.25 4.75 -2.25 4.75 -2 2 C-1.34 2 -0.68 2 0 2 C0 1.34 0 0.68 0 0 Z " fill="#616161" transform="translate(98,61)"/>
<path d="M0 0 C2.375 2.25 2.375 2.25 4 5 C3.80654378 7.77287249 3.23457223 9.53085554 2 12 C-0.1875 12.375 -0.1875 12.375 -3 12 C-5.875 9.375 -5.875 9.375 -8 6 C-7.9375 2.6875 -7.9375 2.6875 -7 0 C-4.20824656 -1.39587672 -2.93876905 -0.97958968 0 0 Z " fill="#565656" transform="translate(210,41)"/>
<path d="M0 0 C2 3 2 3 1.875 5.4375 C0.79769128 8.59247555 -0.33619577 10.00214683 -3 12 C-5.625 12.375 -5.625 12.375 -8 12 C-10 10 -10 10 -10.375 7.125 C-10 4 -10 4 -8.375 1.625 C-5.33871982 -0.45245486 -3.60745994 -0.54896129 0 0 Z " fill="#565656" transform="translate(212,25)"/>
<path d="M0 0 C2 2 2 2 2.375 4.8125 C1.91941911 8.68493753 0.41660096 10.03771495 -2 13 C-1.9163811 15.75942373 -1.21328334 16.76210704 0.625 18.8125 C2.65024401 22.03447911 1.76174242 24.39903582 1 28 C0.01 28.33 -0.98 28.66 -2 29 C-1.7525 27.948125 -1.505 26.89625 -1.25 25.8125 C-0.66467423 22.00885039 -0.66467423 22.00885039 -2.5625 19.0625 C-4.88568288 16.69943601 -4.88568288 16.69943601 -8.25 16.6875 C-9.1575 16.790625 -10.065 16.89375 -11 17 C-12.60355101 13.49223216 -13.22036864 10.85645121 -13 7 C-12.690625 7.639375 -12.38125 8.27875 -12.0625 8.9375 C-11.1654837 10.93610821 -11.1654837 10.93610821 -10 12 C-6.73172721 12.44165849 -5.37884724 12.25921127 -2.625 10.375 C-0.65644081 8.02984454 -0.65644081 8.02984454 -1.25 4.75 C-1.4975 3.8425 -1.745 2.935 -2 2 C-4.97 1.505 -4.97 1.505 -8 1 C-8 0.34 -8 -0.32 -8 -1 C-4.34765818 -2.21744727 -3.37046678 -1.64202228 0 0 Z " fill="#DDDDDD" transform="translate(214,24)"/>
<path d="M0 0 C2.62961773 2.48747623 3.85266302 4.09492996 4.4375 7.6875 C4.293125 8.450625 4.14875 9.21375 4 10 C1 12 1 12 -2.5625 11.8125 C-6 11 -6 11 -8 8 C-8.35840349 5.13277207 -8.41121458 3.62764331 -6.8125 1.1875 C-4.28374096 -0.46927316 -2.966479 -0.57882517 0 0 Z " fill="#616161" transform="translate(118,75)"/>
<path d="M0 0 C1.35416667 0.27083333 2.70833333 0.54166667 4.0625 0.8125 C5.42568359 1.08320313 5.42568359 1.08320313 6.81640625 1.359375 C9.09705072 1.81830223 11.37547159 2.28833415 13.65234375 2.765625 C30.89740959 6.33719193 47.48951428 6.70536904 65 5 C65 5.33 65 5.66 65 6 C57.55353381 8.0666404 50.4995095 8.30886549 42.79052734 8.26074219 C40.7675935 8.25009262 38.74556194 8.26064986 36.72265625 8.2734375 C24.50630489 8.24950733 12.15855481 7.45150769 1 2 C0.67 1.34 0.34 0.68 0 0 Z " fill="#CBCBCB" transform="translate(225,269)"/>
<path d="M0 0 C4.21349811 2.80899874 4.33610146 5.51374348 5.42578125 10.31640625 C7.00860987 20.47019801 6.69148766 30.41144195 3.78515625 40.29296875 C3.01721596 42.9406435 2.52002177 45.53372212 2.0625 48.25 C1.15867052 53.02407368 -0.64610636 56.76299145 -3 61 C-4.34147402 58.31705195 -3.68764995 57.32876632 -2.8203125 54.4921875 C-2.55089844 53.58726562 -2.28148437 52.68234375 -2.00390625 51.75 C-1.71386719 50.80125 -1.42382812 49.8525 -1.125 48.875 C1.69668531 39.6239952 3.17867863 31.18585993 3.1875 21.5 C3.19974609 20.79230469 3.21199219 20.08460938 3.22460938 19.35546875 C3.23860367 14.25221741 2.38051084 9.91314885 1 5 C0.65334443 3.33605325 0.31323028 1.67056149 0 0 Z " fill="#B5B5B5" transform="translate(239,128)"/>
<path d="M0 0 C0.625 1.859375 0.625 1.859375 1 4 C-1 6.25 -1 6.25 -2.4296875 7.53515625 C-4.15631812 9.14581915 -5.61394942 10.87350933 -7.125 12.6875 C-11.6270982 17.88528667 -16.65439856 22.67387479 -22 27 C-22.66 27 -23.32 27 -24 27 C-24 27.66 -24 28.32 -24 29 C-27.49750328 32.64323258 -31.16371872 32.84646726 -36 33 C-37.6875 31.6875 -37.6875 31.6875 -39 30 C-39.86625 29.690625 -40.7325 29.38125 -41.625 29.0625 C-42.800625 28.5365625 -42.800625 28.5365625 -44 28 C-44.6484375 25.93359375 -44.6484375 25.93359375 -45 24 C-44.33613281 24.44472656 -43.67226563 24.88945313 -42.98828125 25.34765625 C-42.10527344 25.91355469 -41.22226562 26.47945312 -40.3125 27.0625 C-39.44238281 27.63097656 -38.57226562 28.19945313 -37.67578125 28.78515625 C-34.48572732 30.2334873 -33.27129217 30.13075212 -30 29 C-17.50086947 22.50694518 -7.90060823 11.38617068 0 0 Z " fill="#CFCFCF" transform="translate(324,84)"/>
<path d="M0 0 C8.62456878 7.31705398 9.33131882 22.11911472 10.21875 32.578125 C10.59845469 42.13402625 8.15817177 52.04726959 5 61 C4.67 61 4.34 61 4 61 C4.4306498 56.47817713 4.94335582 52.18489611 6.0234375 47.7734375 C7.10849151 42.99652925 7.30818122 38.4472363 7.25 33.5625 C7.24250732 32.72920166 7.23501465 31.89590332 7.22729492 31.03735352 C7.06267211 21.62626275 5.68303361 14.49532554 1.0234375 6.2265625 C0 4 0 4 0 0 Z " fill="#C5C5C5" transform="translate(335,188)"/>
<path d="M0 0 C0.66 0 1.32 0 2 0 C2.33 2.31 2.66 4.62 3 7 C2.34 6.34 1.68 5.68 1 5 C-2.05114858 11.10229715 0.242403 18.89691182 1.8125 25.1875 C1.9777417 25.85217285 2.1429834 26.5168457 2.31323242 27.20166016 C3.19174412 30.53132284 4.2288827 33.65444234 5.625 36.8046875 C6.95066848 39.88536027 7.29946397 41.70589637 7 45 C5.68 45.66 4.36 46.32 3 47 C3 46.34 3 45.68 3 45 C3.66 45 4.32 45 5 45 C4.71125 43.741875 4.4225 42.48375 4.125 41.1875 C3.96257812 40.47980469 3.80015625 39.77210938 3.6328125 39.04296875 C3.01992277 36.72257026 3.01992277 36.72257026 1 34 C0.4375 31.984375 0.4375 31.984375 0 29.75 C-0.56742859 26.94438087 -1.20023777 24.41041102 -2.125 21.6875 C-3.55333819 15.66807478 -3.97409418 8.92228254 -2 3 C-1.34 3 -0.68 3 0 3 C0 2.01 0 1.02 0 0 Z " fill="#D2D2D2" transform="translate(149,177)"/>
<path d="M0 0 C0.66 0 1.32 0 2 0 C4.83199217 9.38097406 5.31862102 18.03055633 1 27 C0.34 27.33 -0.32 27.66 -1 28 C-1.03867187 26.7315625 -1.03867187 26.7315625 -1.078125 25.4375 C-1.40839986 17.63977016 -1.40839986 17.63977016 -4.125 10.4375 C-6 7 -6 7 -5 3 C-3.02 6.96 -1.04 10.92 1 15 C1.09038099 9.84828377 0.84681133 5.08086796 0 0 Z " fill="#CBCBCB" transform="translate(328,201)"/>
<path d="M0 0 C-2.90600261 1.25664978 -4.79604584 2 -8 2 C-8 2.66 -8 3.32 -8 4 C-15.28545936 5.91094016 -22.5095829 6.24604914 -30 6.3125 C-30.93223389 6.32990234 -31.86446777 6.34730469 -32.82495117 6.36523438 C-33.70771729 6.36458984 -34.5904834 6.36394531 -35.5 6.36328125 C-36.2940625 6.36626221 -37.088125 6.36924316 -37.90625 6.37231445 C-40.47963973 5.91470959 -41.36373457 4.98338183 -43 3 C-42.42781738 3.02094727 -41.85563477 3.04189453 -41.26611328 3.06347656 C-29.13412821 3.44615846 -18.20610266 2.90860152 -6.45703125 -0.22265625 C-3 -1 -3 -1 0 0 Z " fill="#ABABAB" transform="translate(149,271)"/>
<path d="M0 0 C1.23286828 3.52600328 0.73230301 5.66749549 -0.375 9.1875 C-2.9635869 17.44920491 -3.17786714 25.96816258 -3.5625 34.5625 C-3.60568359 35.47580078 -3.64886719 36.38910156 -3.69335938 37.33007812 C-3.79811757 39.55327991 -3.90029017 41.77656707 -4 44 C-4.66 43.67 -5.32 43.34 -6 43 C-9.55483343 28.75199825 -4.66650505 13.39393816 0 0 Z " fill="#A4A4A4" transform="translate(77,191)"/>
<path d="M0 0 C5 2 5 2 6.1875 4.0625 C6.455625 4.701875 6.72375 5.34125 7 6 C7.66 6.33 8.32 6.66 9 7 C9.40729228 9.32156597 9.74438677 11.6568787 10 14 C8.31145657 11.82901559 6.82226093 9.6942888 5.4375 7.3125 C4.2091532 4.88644136 4.2091532 4.88644136 2 4 C2.16242188 4.49886719 2.32484375 4.99773437 2.4921875 5.51171875 C3.19242171 8.94286637 3.14430913 12.32720241 3.125 15.8125 C3.12886719 16.49892578 3.13273438 17.18535156 3.13671875 17.89257812 C3.12826847 22.35855357 2.72583566 26.59314064 2 31 C1.67 31 1.34 31 1 31 C0.67 20.77 0.34 10.54 0 0 Z " fill="#C5C5C5" transform="translate(229,114)"/>
<path d="M0 0 C0 0.33 0 0.66 0 1 C-0.86612915 1.01401855 -0.86612915 1.01401855 -1.74975586 1.02832031 C-16.97611658 1.33595402 -32.54908982 1.89392528 -46.23828125 9.36328125 C-48.49245768 10.1779836 -49.77093477 9.76270444 -52 9 C-35.24676938 1.83990558 -18.31691563 -3.05281927 0 0 Z " fill="#CECECE" transform="translate(195,83)"/>
<path d="M0 0 C2.97 0.495 2.97 0.495 6 1 C6 1.66 6 2.32 6 3 C6.66 3 7.32 3 8 3 C10.3439708 10.0319124 9.21835327 17.38613639 6 24 C5.34 24.33 4.68 24.66 4 25 C4.350625 23.9275 4.70125 22.855 5.0625 21.75 C5.96372731 18.14509076 6.12965026 17.28625531 5 14 C4.896875 12.865625 4.79375 11.73125 4.6875 10.5625 C3.92355688 6.60388565 2.6291648 4.96841187 0 2 C0 1.34 0 0.68 0 0 Z " fill="#D3D3D3" transform="translate(321,59)"/>
<path d="M0 0 C0.66 0 1.32 0 2 0 C2.81854381 13.07396365 0.78504487 26.61081755 -6 38 C-7.32897929 35.34204142 -6.70123023 34.4884501 -5.78515625 31.703125 C-5.51082764 30.83268555 -5.23649902 29.96224609 -4.95385742 29.06542969 C-4.65970947 28.13633789 -4.36556152 27.20724609 -4.0625 26.25 C-1.65692355 18.35609042 -0.3912166 11.69967556 -0.88671875 3.421875 C-0.94279297 2.22304687 -0.94279297 2.22304687 -1 1 C-0.67 0.67 -0.34 0.34 0 0 Z " fill="#CECECE" transform="translate(219,124)"/>
<path d="M0 0 C0.66 0.33 1.32 0.66 2 1 C0.75283203 1.50660156 0.75283203 1.50660156 -0.51953125 2.0234375 C-1.60621094 2.46945313 -2.69289063 2.91546875 -3.8125 3.375 C-4.89144531 3.81585938 -5.97039062 4.25671875 -7.08203125 4.7109375 C-10.10730112 5.9479119 -10.10730112 5.9479119 -13 8 C-22.89402014 9.57047939 -33.009223 9.094527 -43 9 C-43 8.67 -43 8.34 -43 8 C-36.73 8 -30.46 8 -24 8 C-24 7.34 -24 6.68 -24 6 C-22.53240234 5.72736328 -22.53240234 5.72736328 -21.03515625 5.44921875 C-12.24834803 3.79644286 -12.24834803 3.79644286 -3.6875 1.25 C-1.8621875 0.63125 -1.8621875 0.63125 0 0 Z " fill="#AFAFAF" transform="translate(312,240)"/>
<path d="M0 0 C0.66 0.33 1.32 0.66 2 1 C0 4 0 4 -2.375 5.375 C-5.12107647 6.87035624 -5.12107647 6.87035624 -6.9375 9.4375 C-9 12 -9 12 -11.76171875 13.76953125 C-15.36576737 16.25193386 -18.00183125 18.98645506 -20.875 22.25 C-21.37257813 22.80429688 -21.87015625 23.35859375 -22.3828125 23.9296875 C-23.59447749 25.28115999 -24.79809664 26.6398389 -26 28 C-26 23.91824863 -23.91420702 22.31072043 -21.25 19.5 C-20.76208984 18.97680176 -20.27417969 18.45360352 -19.77148438 17.91455078 C-13.73412784 11.53006542 -7.3273447 4.88489647 0 0 Z " fill="#B2B2B2" transform="translate(126,128)"/>
<path d="M0 0 C0.33 0 0.66 0 1 0 C0.97679687 0.88300781 0.95359375 1.76601562 0.9296875 2.67578125 C0.76172706 13.8451507 2.1222929 23.53019083 6 34 C5.34 34 4.68 34 4 34 C3.35165346 32.730447 2.70642185 31.45930294 2.0625 30.1875 C1.70285156 29.47980469 1.34320313 28.77210938 0.97265625 28.04296875 C-0.52047865 24.90678581 -1.12733129 22.37890031 -1.1328125 18.9453125 C-1.13474609 17.77548828 -1.13474609 17.77548828 -1.13671875 16.58203125 C-1.13285156 15.77121094 -1.12898438 14.96039063 -1.125 14.125 C-1.12886719 13.32191406 -1.13273437 12.51882812 -1.13671875 11.69140625 C-1.13008228 7.66306714 -1.00253888 3.93058896 0 0 Z " fill="#C7C7C7" transform="translate(63,204)"/>
<path d="M0 0 C1.22210689 3.66632068 0.35904469 4.90096894 -1.30078125 8.24414062 C-1.65527344 8.92669922 -2.00976562 9.60925781 -2.375 10.3125 C-2.73207031 11.01439453 -3.08914062 11.71628906 -3.45703125 12.43945312 C-7.17311923 19.59517271 -11.49284723 26.32273664 -16 33 C-16.33 32.34 -16.66 31.68 -17 31 C-15.93270233 29.09954118 -14.76577136 27.25491742 -13.5625 25.4375 C-9.21826166 18.70504747 -5.87647441 11.64287018 -2.56640625 4.359375 C-1 1 -1 1 0 0 Z " fill="#B0B0B0" transform="translate(224,162)"/>
<path d="M0 0 C0 0.99 0 1.98 0 3 C-0.99 3.33 -1.98 3.66 -3 4 C-3.144375 4.598125 -3.28875 5.19625 -3.4375 5.8125 C-4.22485513 8.8744366 -5.58745237 9.96838095 -8 12 C-9.17642346 12.68602371 -10.3648266 13.35178776 -11.5625 14 C-14.68984419 15.81954571 -16.1616939 16.97220172 -18 20 C-19.32 19.67 -20.64 19.34 -22 19 C-21.27554688 18.40832031 -20.55109375 17.81664062 -19.8046875 17.20703125 C-17.8115554 15.57797795 -15.81940444 13.94772364 -13.828125 12.31640625 C-12.25739246 11.02988084 -10.68556164 9.74468125 -9.109375 8.46484375 C-5.86741044 5.8115517 -2.91499214 3.00072721 0 0 Z " fill="#B3B3B3" transform="translate(205,232)"/>
<path d="M0 0 C12.13714886 0.62778356 22.98387051 5.28411594 33 12 C32.01 12.33 31.02 12.66 30 13 C28.22265625 11.99609375 28.22265625 11.99609375 26.0625 10.4375 C18.18528207 5.40973908 8.93561043 3.42705227 0 1 C0 0.67 0 0.34 0 0 Z " fill="#BBBBBB" transform="translate(195,84)"/>
<path d="M0 0 C0.33 0 0.66 0 1 0 C1.17015625 1.0621875 1.3403125 2.124375 1.515625 3.21875 C3.24375072 13.49156483 5.31141826 20.69693301 12 29 C12.75 31.3125 12.75 31.3125 13 33 C12.34 33 11.68 33 11 33 C9.58195135 31.02496833 8.30791365 29.08071736 7.0625 27 C6.70349609 26.40131104 6.34449219 25.80262207 5.97460938 25.18579102 C0.76005419 16.33420319 -0.46481388 10.32919739 0 0 Z " fill="#C8C8C8" transform="translate(241,67)"/>
<path d="M0 0 C28.32003209 -0.5282493 28.32003209 -0.5282493 35 5 C35 5.66 35 6.32 35 7 C34.2575 6.731875 33.515 6.46375 32.75 6.1875 C30.89375 5.5996875 30.89375 5.5996875 29 5 C28.195625 4.73574219 27.39125 4.47148438 26.5625 4.19921875 C17.36333613 1.50335267 8.48572665 1.7154282 -1 2 C-0.67 1.34 -0.34 0.68 0 0 Z " fill="#B9B9B9" transform="translate(171,94)"/>
<path d="M0 0 C2 1 2 1 3.125 3.9375 C5.22242332 12.15939943 4.2663125 20.20879588 1 28 C0.34 28.66 -0.32 29.32 -1 30 C-0.10215664 23.45856981 -0.10215664 23.45856981 0.52734375 20.6328125 C1.72622139 13.95476683 1.4693139 6.61191257 0 0 Z " fill="#D3D3D3" transform="translate(338,57)"/>
<path d="M0 0 C6.42459135 -0.42771205 11.81900021 1.14312105 17.9375 3 C18.90751953 3.28617188 19.87753906 3.57234375 20.87695312 3.8671875 C23.25393652 4.56974417 25.62799658 5.28084401 28 6 C28 6.33 28 6.66 28 7 C21.22053051 7.4561886 16.23332941 7.12080125 10.1484375 4.0234375 C6.86811764 2.4608124 3.5409391 1.77256853 0 1 C0 0.67 0 0.34 0 0 Z " fill="#CCCCCC" transform="translate(225,237)"/>
<path d="M0 0 C-1.05058594 0.36351563 -2.10117188 0.72703125 -3.18359375 1.1015625 C-10.47969101 3.69378 -17.07523074 6.10603413 -23.203125 10.99609375 C-25 12 -25 12 -27.234375 11.66015625 C-27.81703125 11.44230469 -28.3996875 11.22445312 -29 11 C-8.65965332 -3.40428632 -8.65965332 -3.40428632 0 0 Z " fill="#CFCFCF" transform="translate(193,127)"/>
<path d="M0 0 C0.66 0.33 1.32 0.66 2 1 C1.01 2.32 0.02 3.64 -1 5 C-0.32453125 4.69964844 0.3509375 4.39929688 1.046875 4.08984375 C1.93890625 3.70957031 2.8309375 3.32929688 3.75 2.9375 C5.07257813 2.36322266 5.07257813 2.36322266 6.421875 1.77734375 C9.15256309 0.95399992 10.36901347 1.0226008 13 2 C12.00097656 2.37511719 11.00195312 2.75023437 9.97265625 3.13671875 C8.66886021 3.65260927 7.36549662 4.16959367 6.0625 4.6875 C5.40314453 4.93177734 4.74378906 5.17605469 4.06445312 5.42773438 C1.89583321 6.25729792 1.89583321 6.25729792 -1 8 C-2.05477257 10.59058664 -2.05477257 10.59058664 -2 13 C-4.09845357 10.73367014 -5.01618762 9.64750486 -4.9375 6.5 C-3.82992505 3.54646679 -2.35871993 2.05436898 0 0 Z " fill="#D7D7D7" transform="translate(170,148)"/>
<path d="M0 0 C2.99447142 0.42778163 4.8510967 0.89811879 7.375 2.625 C10.96181813 4.5038095 13.13061469 3.93151869 17 3 C17.99 2.34 18.98 1.68 20 1 C20.99 1.33 21.98 1.66 23 2 C21.75443908 2.81928886 20.50333365 3.63015186 19.25 4.4375 C18.20585937 5.11619141 18.20585937 5.11619141 17.140625 5.80859375 C14.94697591 7.02951158 13.50460688 7.80039186 11 8 C8.45703125 6.85546875 8.45703125 6.85546875 5.8125 5.1875 C4.93207031 4.64480469 4.05164063 4.10210937 3.14453125 3.54296875 C1 2 1 2 0 0 Z " fill="#B1B1B1" transform="translate(279,123)"/>
<path d="M0 0 C0.79478886 2.29630397 1.1601115 3.54852555 0.33496094 5.87524414 C-0.02823242 6.50551514 -0.39142578 7.13578613 -0.765625 7.78515625 C-1.35923828 8.82833008 -1.35923828 8.82833008 -1.96484375 9.89257812 C-2.38894531 10.60865234 -2.81304687 11.32472656 -3.25 12.0625 C-3.65863281 12.78244141 -4.06726563 13.50238281 -4.48828125 14.24414062 C-6.4085495 17.56910671 -8.18200456 20.35800247 -11 23 C-8.66222612 14.52556968 -4.4826184 7.4852274 0 0 Z " fill="#C1C1C1" transform="translate(69,158)"/>
<path d="M0 0 C0.33 0 0.66 0 1 0 C1.67466367 11.06948169 -0.51318012 21.35076504 -6 31 C-7.34147402 28.31705195 -6.68764995 27.32876632 -5.8203125 24.4921875 C-5.55089844 23.58726562 -5.28148437 22.68234375 -5.00390625 21.75 C-4.71386719 20.80125 -4.42382812 19.8525 -4.125 18.875 C-2.19965624 12.56268576 -0.60414886 6.58367344 0 0 Z " fill="#E6E6E6" transform="translate(242,158)"/>
<path d="M0 0 C0 0.66 0 1.32 0 2 C-0.90363281 2.06058594 -1.80726563 2.12117187 -2.73828125 2.18359375 C-3.91777344 2.26738281 -5.09726563 2.35117188 -6.3125 2.4375 C-7.48425781 2.51871094 -8.65601563 2.59992188 -9.86328125 2.68359375 C-13.02590958 2.8867371 -13.02590958 2.8867371 -16 4 C-17.39439664 4.06665376 -18.79169875 4.08538199 -20.1875 4.0625 C-22.0746875 4.0315625 -22.0746875 4.0315625 -24 4 C-16.8350205 -0.776653 -8.32645748 -0.25359769 0 0 Z " fill="#BBBBBB" transform="translate(207,145)"/>
<path d="M0 0 C3.55122825 0.9184211 6.43403767 2.14744796 9.625 3.9375 C5.900397 5.17903433 5.14747731 4.41202539 1.625 2.9375 C-0.3674325 2.56156934 -2.3668674 2.21770455 -4.375 1.9375 C-4.395625 3.21625 -4.41625 4.495 -4.4375 5.8125 C-4.44910156 6.53179687 -4.46070313 7.25109375 -4.47265625 7.9921875 C-4.50149242 10.01935404 -4.50149242 10.01935404 -3.375 11.9375 C-4.695 11.2775 -6.015 10.6175 -7.375 9.9375 C-7.69491247 6.41846286 -7.74669764 4.51734832 -5.8125 1.5 C-3.375 -0.0625 -3.375 -0.0625 0 0 Z " fill="#D4D4D4" transform="translate(204.375,260.0625)"/>
<path d="M0 0 C0.625 1.859375 0.625 1.859375 1 4 C-1 6.25 -1 6.25 -2.4140625 7.51953125 C-4.22752927 9.21239802 -5.77750772 11.04002613 -7.375 12.9375 C-10.63395511 16.71215789 -14.13963786 19.84868397 -18 23 C-16.52294505 19.51446293 -14.56625744 17.44390969 -11.8125 14.875 C-7.15434175 10.34497879 -3.52998467 5.43685742 0 0 Z " fill="#CFCFCF" transform="translate(324,84)"/>
<path d="M0 0 C2.86724686 0.57344937 3.8614515 0.8614515 6 3 C6.4375 5.875 6.4375 5.875 6 9 C3.875 11.4375 3.875 11.4375 1 13 C-2.25 12.875 -2.25 12.875 -5 12 C-5.33 11.34 -5.66 10.68 -6 10 C-4.906875 10.020625 -3.81375 10.04125 -2.6875 10.0625 C0.94384191 10.18544452 0.94384191 10.18544452 4 9 C2.94124926 5.59687262 1.99097846 2.98646769 0 0 Z " fill="#D5D5D5" transform="translate(118,76)"/>
<path d="M0 0 C2.3125 0.875 2.3125 0.875 4.3125 1.875 C3.9825 2.865 3.6525 3.855 3.3125 4.875 C2.9825 4.545 2.6525 4.215 2.3125 3.875 C0.31291636 3.83419217 -1.68795254 3.83245644 -3.6875 3.875 C-4.70290112 7.97723585 -4.70290112 7.97723585 -3.6875 11.875 C-4.6775 11.545 -5.6675 11.215 -6.6875 10.875 C-7.5 8.1875 -7.5 8.1875 -7.6875 4.875 C-4.02546075 -0.18723073 -4.02546075 -0.18723073 0 0 Z " fill="#D3D3D3" transform="translate(191.6875,22.125)"/>
<path d="M0 0 C-1.20381448 2.49361571 -2.45428722 4.68143083 -4 7 C-4.38499891 8.65549531 -4.72793135 10.3222433 -5 12 C-6.65 12.33 -8.3 12.66 -10 13 C-9.67 12.34 -9.34 11.68 -9 11 C-8.34 11 -7.68 11 -7 11 C-7.33 9.906875 -7.66 8.81375 -8 7.6875 C-9 4 -9 4 -9 1 C-7.68 1.66 -6.36 2.32 -5 3 C-4.319375 2.2575 -4.319375 2.2575 -3.625 1.5 C-2 0 -2 0 0 0 Z " fill="#E0E0E0" transform="translate(206,24)"/>
<path d="M0 0 C6.05990703 5.10307961 8.13584259 14.75158899 8.8125 22.3125 C8.89492269 23.87407581 8.96553694 25.43663031 9 27 C7.02275907 24.03413861 6.6823331 22.82520351 6.1875 19.4375 C5.29563581 14.48511595 3.48293289 10.59110057 1.0234375 6.2265625 C0 4 0 4 0 0 Z " fill="#DDDDDD" transform="translate(335,188)"/>
<path d="M0 0 C0.33 0.66 0.66 1.32 1 2 C0.5875 2.680625 0.175 3.36125 -0.25 4.0625 C-3.96126536 10.292124 -5.3495636 16.8451996 -6 24 C-6.33 24 -6.66 24 -7 24 C-7.44686782 14.61577584 -5.62718489 7.56759347 0 0 Z " fill="#DEDEDE" transform="translate(247,51)"/>
<path d="M0 0 C0.66 0.33 1.32 0.66 2 1 C3.37342831 1.0689472 4.75002102 1.08467708 6.125 1.0625 C7.40375 1.041875 8.6825 1.02125 10 1 C10 2.32 10 3.64 10 5 C8.3603125 4.9071875 8.3603125 4.9071875 6.6875 4.8125 C3.08247389 4.62756763 3.08247389 4.62756763 1.1875 6.5 C0.5996875 7.2425 0.5996875 7.2425 0 8 C-0.66 8 -1.32 8 -2 8 C-2.33 7.01 -2.66 6.02 -3 5 C-2.01 4.67 -1.02 4.34 0 4 C0 2.68 0 1.36 0 0 Z " fill="#E9E9E9" transform="translate(110,71)"/>
<path d="M0 0 C3.3125 0.0625 3.3125 0.0625 7 1 C8.59040839 3.28141342 9.16506544 5.29874113 10 8 C10.763125 8 11.52625 8 12.3125 8 C14.20833333 8 16.10416667 8 18 8 C15.8125 9.625 15.8125 9.625 13 11 C9.82564566 10.18795587 8.31819425 9.31819425 6 7 C5.896875 6.34 5.79375 5.68 5.6875 5 C5.460625 4.34 5.23375 3.68 5 3 C2.50965614 1.70339566 2.50965614 1.70339566 0 1 C0 0.67 0 0.34 0 0 Z " fill="#CACACA" transform="translate(308,66)"/>
<path d="M0 0 C2.875 0.875 2.875 0.875 4.875 2.875 C1.905 2.545 -1.065 2.215 -4.125 1.875 C-4.23820856 6.95803686 -4.23820856 6.95803686 -3.125 11.875 C-4.445 11.215 -5.765 10.555 -7.125 9.875 C-7.44857362 6.31569018 -7.5130551 4.45708265 -5.5 1.4375 C-3.125 -0.125 -3.125 -0.125 0 0 Z " fill="#BEBEBE" transform="translate(268.125,157.125)"/>
<path d="M0 0 C0.66 0 1.32 0 2 0 C2.33 2.31 2.66 4.62 3 7 C2.34 6.34 1.68 5.68 1 5 C-0.67110042 7.96178773 -1.32682752 10.37071192 -1.625 13.75 C-1.69976562 14.54921875 -1.77453125 15.3484375 -1.8515625 16.171875 C-1.90054688 16.77515625 -1.94953125 17.3784375 -2 18 C-2.33 18 -2.66 18 -3 18 C-3.02703381 16.06257659 -3.04641125 14.12504521 -3.0625 12.1875 C-3.07410156 11.10855469 -3.08570313 10.02960938 -3.09765625 8.91796875 C-3 6 -3 6 -2 3 C-1.34 3 -0.68 3 0 3 C0 2.01 0 1.02 0 0 Z " fill="#878787" transform="translate(149,177)"/>
<path d="M0 0 C4.59808129 0.53894425 7.86784369 1.76571528 11.875 4.0625 C12.84179688 4.61035156 13.80859375 5.15820312 14.8046875 5.72265625 C15.89136719 6.35494141 15.89136719 6.35494141 17 7 C17 7.99 17 8.98 17 10 C11.39 7.03 5.78 4.06 0 1 C0 0.67 0 0.34 0 0 Z " fill="#B1B1B1" transform="translate(276,140)"/>
<path d="M0 0 C0.66 0 1.32 0 2 0 C2.0272616 2.04159095 2.04651345 4.08328963 2.0625 6.125 C2.07410156 7.26195312 2.08570313 8.39890625 2.09765625 9.5703125 C2.005327 12.8129156 1.61389906 15.81932612 1 19 C0.67 19 0.34 19 0 19 C-0.88789523 13.00670719 -1.40182396 7.06281442 -1 1 C-0.67 0.67 -0.34 0.34 0 0 Z " fill="#ADADAD" transform="translate(219,124)"/>
<path d="M0 0 C3.36023704 0.39072524 5.6361626 0.76350569 8.5 2.625 C11.73261753 4.40293964 13.50434456 3.89423744 17 3 C15.68 4.65 14.36 6.3 13 8 C10.03216871 6.54331217 7.13584687 4.98767914 4.25 3.375 C3.45078125 2.92898437 2.6515625 2.48296875 1.828125 2.0234375 C1.22484375 1.68570313 0.6215625 1.34796875 0 1 C0 0.67 0 0.34 0 0 Z " fill="#D7D7D7" transform="translate(279,42)"/>
<path d="M0 0 C0 0.66 0 1.32 0 2 C-11.33712984 7.74031891 -11.33712984 7.74031891 -18 7 C-14.87351251 4.91567501 -11.94269132 3.71441389 -8.4375 2.375 C-7.28121094 1.92898438 -6.12492187 1.48296875 -4.93359375 1.0234375 C-2 0 -2 0 0 0 Z " fill="#C8C8C8" transform="translate(308,267)"/>
<path d="M0 0 C0.66 0 1.32 0 2 0 C2.66 2.31 3.32 4.62 4 7 C3.34 7 2.68 7 2 7 C2 6.34 2 5.68 2 5 C1.278125 5.639375 0.55625 6.27875 -0.1875 6.9375 C-2.98191184 8.98673535 -4.61663274 9.61332946 -8 10 C-8.33 9.34 -8.66 8.68 -9 8 C-7.35 8 -5.7 8 -4 8 C-3.34 6.68 -2.68 5.36 -2 4 C-1.34 4 -0.68 4 0 4 C0 2.68 0 1.36 0 0 Z " fill="#D2D2D2" transform="translate(108,79)"/>
<path d="M0 0 C3.46704871 0.9534384 5.6567524 2.28676594 8 5 C7.67 5.66 7.34 6.32 7 7 C5.02 6.34 3.04 5.68 1 5 C1 4.34 1 3.68 1 3 C-0.32 2.67 -1.64 2.34 -3 2 C-2.01 1.34 -1.02 0.68 0 0 Z " fill="#EBEBEB" transform="translate(318,54)"/>
<path d="M0 0 C-2.90600261 1.25664978 -4.79604584 2 -8 2 C-8 2.66 -8 3.32 -8 4 C-12.29 4 -16.58 4 -21 4 C-21 3.67 -21 3.34 -21 3 C-18.06449875 2.30278105 -15.12712524 1.61690995 -12.1875 0.9375 C-11.35412109 0.73833984 -10.52074219 0.53917969 -9.66210938 0.33398438 C-8.85966797 0.15029297 -8.05722656 -0.03339844 -7.23046875 -0.22265625 C-6.12288208 -0.48187866 -6.12288208 -0.48187866 -4.99291992 -0.74633789 C-3 -1 -3 -1 0 0 Z " fill="#CECECE" transform="translate(149,271)"/>
<path d="M0 0 C0 4.22225848 -1.82726441 5.29347556 -4.75 8.25 C-5.63171875 9.16265625 -6.5134375 10.0753125 -7.421875 11.015625 C-10 13 -10 13 -12.328125 12.796875 C-12.87984375 12.53390625 -13.4315625 12.2709375 -14 12 C-13.49210937 11.63648438 -12.98421875 11.27296875 -12.4609375 10.8984375 C-7.89812427 7.56604581 -3.89644336 4.09126553 0 0 Z " fill="#C7C7C7" transform="translate(322,254)"/>
<path d="M0 0 C3.71045247 1.57780923 6.29906384 3.90703248 9.25 6.625 C10.14203125 7.44226563 11.0340625 8.25953125 11.953125 9.1015625 C12.96632812 10.04128906 12.96632812 10.04128906 14 11 C13.67 11.66 13.34 12.32 13 13 C12.31292969 12.37351562 11.62585938 11.74703125 10.91796875 11.1015625 C10.01691406 10.28429687 9.11585938 9.46703125 8.1875 8.625 C7.29417969 7.81289062 6.40085938 7.00078125 5.48046875 6.1640625 C3.00367326 3.90927093 3.00367326 3.90927093 0 2 C0 1.34 0 0.68 0 0 Z " fill="#D0D0D0" transform="translate(228,97)"/>
<path d="M0 0 C3.0625 1.375 3.0625 1.375 5 3 C5 3.66 5 4.32 5 5 C4.05640625 4.67515625 4.05640625 4.67515625 3.09375 4.34375 C-2.51445928 2.51939276 -7.10968596 1.67276033 -13 2 C-8.67414432 -0.46210834 -4.88203757 -0.58202227 0 0 Z " fill="#CACACA" transform="translate(277,52)"/>
<path d="M0 0 C1 2 1 2 1.375 5 C1.69760368 8.30498897 1.69760368 8.30498897 5 10 C5 10.66 5 11.32 5 12 C6.65 12 8.3 12 10 12 C9.01 12.66 8.02 13.32 7 14 C0.125 10.25 0.125 10.25 -1 8 C-1.125 4.4375 -1.125 4.4375 -1 1 C-0.67 0.67 -0.34 0.34 0 0 Z " fill="#BDBDBD" transform="translate(202,41)"/>
<path d="M0 0 C0.97226335 2.59072612 1.11611108 3.69699083 0.109375 6.32421875 C-0.33921875 7.10410156 -0.7878125 7.88398438 -1.25 8.6875 C-1.68828125 9.47511719 -2.1265625 10.26273438 -2.578125 11.07421875 C-4 13 -4 13 -7 14 C-5.23570801 9.02790438 -2.6060834 4.56561939 0 0 Z " fill="#C0C0C0" transform="translate(208,169)"/>
<path d="M0 0 C1 3 1 3 0.125 5.5625 C-1.32995657 10.00820063 -1.65114406 14.3547078 -2 19 C-2.33 19 -2.66 19 -3 19 C-3.08117951 16.58265458 -3.14056926 14.16805051 -3.1875 11.75 C-3.21263672 11.06808594 -3.23777344 10.38617188 -3.26367188 9.68359375 C-3.31137459 6.40800711 -3.21085076 4.34651444 -1.48828125 1.515625 C-0.99714844 1.01546875 -0.50601563 0.5153125 0 0 Z " fill="#B9B9B9" transform="translate(164,155)"/>
<path d="M0 0 C4.06225548 0.57823096 6.84762346 1.89117737 10.3125 4.0625 C11.19550781 4.61035156 12.07851562 5.15820312 12.98828125 5.72265625 C13.65214844 6.14417969 14.31601563 6.56570312 15 7 C12 8 12 8 9.08203125 6.6015625 C8.00308594 5.94929688 6.92414063 5.29703125 5.8125 4.625 C4.72582031 3.97789063 3.63914063 3.33078125 2.51953125 2.6640625 C1.68808594 2.11492187 0.85664063 1.56578125 0 1 C0 0.67 0 0.34 0 0 Z " fill="#C8C8C8" transform="translate(213,89)"/>
<path d="M0 0 C3.16115776 1.36983503 3.9927092 1.9890638 6 5 C9.56769552 5.73606499 9.56769552 5.73606499 13 6 C12.67 6.66 12.34 7.32 12 8 C9.375 8.4375 9.375 8.4375 6 8 C3.6408849 5.9278043 1.75706096 3.59820716 0 1 C0 0.67 0 0.34 0 0 Z " fill="#B8B8B8" transform="translate(282,57)"/>
<path d="M0 0 C0.20625 0.61875 0.4125 1.2375 0.625 1.875 C2.54775888 4.84653645 4.66594527 5.13024659 8 6 C7.67 6.99 7.34 7.98 7 9 C5.35 9.33 3.7 9.66 2 10 C0.39644899 6.49223216 -0.22036864 3.85645121 0 0 Z " fill="#BCBCBC" transform="translate(201,31)"/>
<path d="M0 0 C3.63 1.98 7.26 3.96 11 6 C7 7 7 7 5.078125 6.07421875 C4.47484375 5.61660156 3.8715625 5.15898437 3.25 4.6875 C2.63640625 4.23761719 2.0228125 3.78773438 1.390625 3.32421875 C0.93171875 2.88722656 0.4728125 2.45023437 0 2 C0 1.34 0 0.68 0 0 Z " fill="#C5C5C5" transform="translate(85,264)"/>
<path d="M0 0 C0.58265625 0.21527344 1.1653125 0.43054688 1.765625 0.65234375 C0.69455383 1.52183692 -0.39183444 2.3724858 -1.484375 3.21484375 C-2.08765625 3.69050781 -2.6909375 4.16617188 -3.3125 4.65625 C-5.234375 5.65234375 -5.234375 5.65234375 -7.46875 5.3046875 C-8.05140625 5.08941406 -8.6340625 4.87414062 -9.234375 4.65234375 C-8.16330383 3.78285058 -7.07691556 2.9322017 -5.984375 2.08984375 C-5.38109375 1.61417969 -4.7778125 1.13851562 -4.15625 0.6484375 C-2.234375 -0.34765625 -2.234375 -0.34765625 0 0 Z " fill="#A5A5A5" transform="translate(173.234375,133.34765625)"/>
<path d="M0 0 C-0.99 0 -1.98 0 -3 0 C-3 0.66 -3 1.32 -3 2 C-5.75078884 2.91692961 -7.35948913 3.10886083 -10.1875 3.0625 C-12.0746875 3.0315625 -12.0746875 3.0315625 -14 3 C-9.7368213 0.15788087 -5.03577274 -2.0143091 0 0 Z " fill="#9D9D9D" transform="translate(176,106)"/>
<path d="M0 0 C1.58467728 0.28427417 3.1677057 0.57774818 4.75 0.875 C6.07257813 1.11863281 6.07257813 1.11863281 7.421875 1.3671875 C9.86947744 1.96796264 11.80599857 2.77997117 14 4 C4.41885965 4.56359649 4.41885965 4.56359649 0 1 C0 0.67 0 0.34 0 0 Z " fill="#C9C9C9" transform="translate(225,269)"/>
<path d="M0 0 C1.65206447 0.92647536 3.2964997 1.86656574 4.9375 2.8125 C5.85402344 3.33457031 6.77054687 3.85664062 7.71484375 4.39453125 C10 6 10 6 11 9 C9.66666667 8.33333333 8.33333333 7.66666667 7 7 C5.4221875 6.319375 5.4221875 6.319375 3.8125 5.625 C1 4 1 4 0.32421875 1.8984375 C0.21722656 1.27195312 0.11023438 0.64546875 0 0 Z " fill="#B3B3B3" transform="translate(279,108)"/>
<path d="M0 0 C2.3125 -0.25 2.3125 -0.25 5 0 C6.8125 2 6.8125 2 8 4 C7.67 4.66 7.34 5.32 7 6 C6.34 5.34 5.68 4.68 5 4 C1.91652174 3.83318891 1.91652174 3.83318891 -1 4 C-0.67 2.68 -0.34 1.36 0 0 Z " fill="#CCCCCC" transform="translate(191,37)"/>
<path d="M0 0 C0.6875 1.6875 0.6875 1.6875 1 4 C-0.3125 6.4375 -0.3125 6.4375 -2 9 C-2.69822617 10.65369357 -3.37498605 12.31727014 -4 14 C-5 12 -5 12 -4.2578125 9.6875 C-3.88398438 8.800625 -3.51015625 7.91375 -3.125 7 C-2.75632813 6.113125 -2.38765625 5.22625 -2.0078125 4.3125 C-1.37431018 2.85888227 -0.70913041 1.41826082 0 0 Z " fill="#C9C9C9" transform="translate(240,175)"/>
<path d="M0 0 C0 3.62453269 -0.92469613 5.07920195 -3 8 C-3.99 8.33 -4.98 8.66 -6 9 C-6 8.01 -6 7.02 -6 6 C-5.34 6 -4.68 6 -4 6 C-3.71125 5.38125 -3.4225 4.7625 -3.125 4.125 C-2 2 -2 2 0 0 Z " fill="#B3B3B3" transform="translate(152,149)"/>
<path d="M0 0 C0 0.66 0 1.32 0 2 C-2.75 4.1875 -2.75 4.1875 -6 6 C-8.203125 5.61328125 -8.203125 5.61328125 -10 5 C-8.71186658 4.16121545 -7.41936744 3.32913217 -6.125 2.5 C-5.40570313 2.0359375 -4.68640625 1.571875 -3.9453125 1.09375 C-2 0 -2 0 0 0 Z " fill="#A0A0A0" transform="translate(145,117)"/>
<path d="M0 0 C1.32 0.99 2.64 1.98 4 3 C2.52307692 8.66153846 2.52307692 8.66153846 -0.125 10.375 C-0.74375 10.58125 -1.3625 10.7875 -2 11 C-1.690625 10.4225 -1.38125 9.845 -1.0625 9.25 C0.64738884 5.62905894 1.29222745 3.87668235 0 0 Z " fill="#EDEDED" transform="translate(187,34)"/>
<path d="M0 0 C0.66 0 1.32 0 2 0 C0.5140084 4.59306496 -1.85014682 7.43569245 -5 11 C-5.33 10.34 -5.66 9.68 -6 9 C-5.05016642 7.49460339 -4.08988109 5.99579653 -3.125 4.5 C-2.59132813 3.6646875 -2.05765625 2.829375 -1.5078125 1.96875 C-0.76144531 0.99421875 -0.76144531 0.99421875 0 0 Z " fill="#BBBBBB" transform="translate(334,89)"/>
<path d="M0 0 C0.33 1.32 0.66 2.64 1 4 C-1.31 5.65 -3.62 7.3 -6 9 C-6.66 8.67 -7.32 8.34 -8 8 C-6.50260417 6.79557292 -5.00520833 5.59114583 -3.5078125 4.38671875 C-1.74707893 2.87729455 -1.74707893 2.87729455 0 0 Z " fill="#BABABA" transform="translate(326,229)"/>
<path d="M0 0 C2.475 0.495 2.475 0.495 5 1 C5 1.66 5 2.32 5 3 C7.475 3.99 7.475 3.99 10 5 C10 5.66 10 6.32 10 7 C6.42032008 5.34784004 3.22017048 3.26875648 0 1 C0 0.67 0 0.34 0 0 Z " fill="#B1B1B1" transform="translate(278,176)"/>
<path d="M0 0 C0.75 1.625 0.75 1.625 1 4 C-0.9375 7.25 -0.9375 7.25 -3 10 C-3.75 8.375 -3.75 8.375 -4 6 C-2.0625 2.75 -2.0625 2.75 0 0 Z " fill="#BABABA" transform="translate(145,158)"/>
<path d="M0 0 C2.5625 2.25 2.5625 2.25 5 5 C4.8125 7.3125 4.8125 7.3125 4 9 C0 4.5 0 4.5 0 0 Z " fill="#AFAFAF" transform="translate(242,110)"/>
<path d="M0 0 C0.99 0.33 1.98 0.66 3 1 C2.67 3.31 2.34 5.62 2 8 C1.01 8.33 0.02 8.66 -1 9 C-0.67 6.03 -0.34 3.06 0 0 Z " fill="#C7C7C7" transform="translate(213,44)"/>
<path d="M0 0 C0.66 0.33 1.32 0.66 2 1 C2.36923077 6.41538462 2.36923077 6.41538462 0.5 9.375 C0.005 9.91125 -0.49 10.4475 -1 11 C-1.99 10.67 -2.98 10.34 -4 10 C-3.34 9.46375 -2.68 8.9275 -2 8.375 C0.31024799 6.10041408 0.31024799 6.10041408 0.25 2.75 C0.1675 1.8425 0.085 0.935 0 0 Z " fill="#BBBBBB" transform="translate(213,26)"/>
<path d="M0 0 C0.66 0.33 1.32 0.66 2 1 C-0.57404971 4.86107457 -2.61020259 4.94319692 -7 6 C-4.74259377 3.66475218 -2.7194239 1.81294927 0 0 Z " fill="#B8B8B8" transform="translate(154,230)"/>
<path d="M0 0 C0.66 0 1.32 0 2 0 C2.33 2.31 2.66 4.62 3 7 C2.34 6.34 1.68 5.68 1 5 C0.34 5.66 -0.32 6.32 -1 7 C-0.67 4.69 -0.34 2.38 0 0 Z " fill="#EBEBEB" transform="translate(149,177)"/>
<path d="M0 0 C0.66 0.33 1.32 0.66 2 1 C2 2.65 2 4.3 2 6 C0.02 6.99 0.02 6.99 -2 8 C-2.33 7.01 -2.66 6.02 -3 5 C-2.01 4.67 -1.02 4.34 0 4 C0 2.68 0 1.36 0 0 Z " fill="#F6F6F6" transform="translate(110,71)"/>
<path d="" fill="#FFFFFF" transform="translate(0,0)"/>
</svg>
